<svg width="135" height="54" viewBox="0 0 135 54" fill="none" xmlns="http://www.w3.org/2000/svg">
<g clip-path="url(#clip0_16_1695)">
<mask id="mask0_16_1695" style="mask-type:luminance" maskUnits="userSpaceOnUse" x="0" y="0" width="135" height="54">
<path d="M0 0H135V54H0V0Z" fill="white"/>
</mask>
<g mask="url(#mask0_16_1695)">
<path d="M21.2354 18.3617C21.208 18.3983 21.1932 18.4372 21.1909 18.4783" stroke="white"/>
<path d="M21.1909 18.4783L15.4722 24.18" stroke="white"/>
<path d="M15.4722 24.18L10.6227 19.2703" stroke="white"/>
<path d="M21.1142 30.1029L21.1638 29.94" stroke="white"/>
<path d="M21.1636 29.94C21.1773 29.9194 21.1983 29.924 21.2267 29.9537C21.2517 29.9789 21.2773 29.9789 21.3034 29.9537L26.9574 24.2726C27.0017 24.2269 27.0017 24.1812 26.9574 24.1354L21.3767 18.5126C21.3449 18.4806 21.3062 18.4669 21.2608 18.4714L21.1909 18.4783" stroke="white"/>
<path d="M21.1636 29.94L15.4722 24.18" stroke="white"/>
</g>
<path d="M46.7114 24.9446C46.6977 27.6874 46.696 30.4291 46.7063 33.1697C46.7097 34.1263 47.2568 34.5634 48.1909 34.5823C51.2318 34.644 52.7403 33.0103 54.3716 30.5743C54.4307 30.4863 54.4602 30.4954 54.4602 30.6017V35.7857C54.4602 35.8714 54.4176 35.9143 54.3324 35.9143H40.4403C40.408 35.9144 40.3762 35.9056 40.3485 35.8888C40.3207 35.8721 40.2981 35.848 40.2829 35.8192C40.2678 35.7904 40.2609 35.758 40.2628 35.7255C40.2647 35.693 40.2754 35.6617 40.2938 35.6348C40.4608 35.3897 40.6943 35.4206 40.9381 35.352C42.0375 35.0451 42.3511 33.8074 42.358 32.7737C42.3898 27.6926 42.4011 22.6108 42.392 17.5286C42.3886 16.1006 41.9864 14.8354 40.4063 14.58C40.3802 14.5758 40.3558 14.5649 40.3352 14.5483C40.3146 14.5318 40.2985 14.5103 40.2886 14.4857C40.2432 14.3703 40.2511 14.2794 40.3125 14.2131C40.3534 14.1674 40.425 14.1446 40.5273 14.1446C44.0068 14.1434 47.4864 14.1411 50.9659 14.1377C51.892 14.1366 52.7205 13.8714 53.4511 13.3423C53.4664 13.3316 53.4841 13.3249 53.5026 13.323C53.521 13.3211 53.5397 13.324 53.5568 13.3314C53.5739 13.3388 53.5888 13.3504 53.6001 13.3652C53.6115 13.38 53.6189 13.3975 53.6216 13.416L54.479 19.5343C54.4817 19.5548 54.4777 19.5757 54.4674 19.5937C54.4571 19.6117 54.4413 19.6258 54.4222 19.6338C54.4032 19.6418 54.3821 19.6433 54.3622 19.638C54.3422 19.6327 54.3246 19.621 54.3119 19.6046C53.279 18.2623 51.5966 16.5428 50.0028 15.9017C48.9614 15.4834 46.7233 14.9468 46.7148 16.8446C46.7045 19.2788 46.7017 21.6863 46.7063 24.0668C46.7063 24.1743 46.7591 24.2246 46.8648 24.2177C48.9739 24.1 51.0824 24.1103 53.1903 24.2486C53.2812 24.2554 53.3 24.2954 53.2466 24.3686C51.9358 26.1548 50.0369 27.348 47.9864 25.8257C47.5852 25.5286 47.1938 25.2188 46.8119 24.8966C46.7449 24.8406 46.7114 24.8566 46.7114 24.9446Z" fill="#6941C6"/>
<path d="M21.2352 18.3617C21.208 18.3983 21.1932 18.4371 21.1909 18.4783L15.4722 24.18L10.6227 19.2703L16.2443 13.5943C16.2744 13.5637 16.3154 13.5463 16.3582 13.546C16.401 13.5457 16.4422 13.5624 16.4727 13.5926L21.2352 18.3617Z" fill="white"/>
<path d="M21.1142 30.1028L21.1636 29.94C21.1773 29.9194 21.1983 29.924 21.2267 29.9537C21.2517 29.9788 21.2773 29.9788 21.3034 29.9537L26.9574 24.2726C27.0017 24.2268 27.0017 24.1811 26.9574 24.1354L21.3767 18.5126C21.3449 18.4806 21.3062 18.4668 21.2608 18.4714L21.1909 18.4783C21.1932 18.4371 21.208 18.3983 21.2352 18.3617L25.8273 13.6971C25.8541 13.67 25.8859 13.6484 25.921 13.6337C25.9561 13.619 25.9938 13.6114 26.0318 13.6114C26.0699 13.6114 26.1075 13.619 26.1426 13.6337C26.1777 13.6484 26.2096 13.67 26.2364 13.6971L36.5523 24.1388C36.5705 24.1576 36.5803 24.1831 36.5797 24.2097C36.579 24.2363 36.568 24.262 36.5489 24.2811L26.2756 34.6697C26.2255 34.7208 26.1571 34.7497 26.0855 34.75C26.0139 34.7503 25.945 34.7221 25.8938 34.6714L21.2949 30.1251C21.2619 30.092 21.2216 30.0783 21.1739 30.084C21.1511 30.0874 21.1312 30.0937 21.1142 30.1028Z" fill="#6941C6"/>
<path d="M80.1375 14.3743C80.1322 14.3538 80.1315 14.3323 80.1355 14.3115C80.1395 14.2906 80.1481 14.2709 80.1606 14.2537C80.1732 14.2365 80.1894 14.2223 80.2081 14.212C80.2267 14.2017 80.2475 14.1957 80.2687 14.1943L86.1 13.8686C86.1226 13.8672 86.1453 13.8704 86.1667 13.8781C86.188 13.8858 86.2076 13.8978 86.2242 13.9134C86.2407 13.929 86.254 13.9478 86.2631 13.9686C86.2723 13.9895 86.2771 14.012 86.2773 14.0349L86.3489 21.6189C86.3488 21.6337 86.3531 21.6482 86.3612 21.6606C86.3693 21.673 86.3809 21.6827 86.3946 21.6887C86.4083 21.6947 86.4234 21.6966 86.4383 21.6942C86.4532 21.6919 86.4671 21.6854 86.4784 21.6754C88.0074 20.2766 90.3886 19.6749 92.3267 20.5303C95.0693 21.7406 96.1057 25.3526 96.0375 28.0937C95.9591 31.2651 94.4608 34.572 91.3585 35.8114C89.7551 36.4514 88.1557 36.2429 86.5602 35.1857C86.4981 35.1446 86.4262 35.1207 86.3517 35.1164C86.2771 35.1122 86.2027 35.1278 86.1358 35.1617C85.1284 35.6743 83.55 36.3274 82.3977 36.2434C82.3364 36.24 82.3074 36.2074 82.3108 36.1457C82.5631 31.7549 82.6636 26.964 82.6125 21.7731C82.6057 21.1389 82.5784 20.696 82.5307 20.4446C82.2784 19.1143 82.3074 17.6709 81.9699 16.2326C81.7608 15.3411 81.2136 14.7749 80.3284 14.5337C80.2216 14.5051 80.158 14.452 80.1375 14.3743ZM89.5496 34.8061C89.9281 34.7875 90.2949 34.6043 90.629 34.2669C90.9632 33.9295 91.2581 33.4445 91.497 32.8398C91.7359 32.235 91.914 31.5222 92.0213 30.742C92.1285 29.9619 92.1628 29.1298 92.1221 28.2931C92.0814 27.4564 91.9666 26.6316 91.7841 25.8657C91.6017 25.0998 91.3552 24.4079 91.0588 23.8295C90.7624 23.251 90.4218 22.7973 90.0565 22.4943C89.6913 22.1914 89.3084 22.045 88.9299 22.0636C88.5514 22.0822 88.1846 22.2655 87.8505 22.6028C87.5164 22.9402 87.2214 23.4252 86.9826 24.03C86.7437 24.6347 86.5655 25.3475 86.4583 26.1277C86.351 26.9078 86.3167 27.7399 86.3574 28.5766C86.3981 29.4133 86.5129 30.2381 86.6954 31.004C86.8778 31.7699 87.1243 32.4618 87.4207 33.0403C87.7171 33.6187 88.0577 34.0724 88.423 34.3754C88.7883 34.6784 89.1711 34.8247 89.5496 34.8061Z" fill="#6941C6"/>
<path d="M21.1909 18.4783L21.2608 18.4714C21.3063 18.4669 21.3449 18.4806 21.3767 18.5126L26.9574 24.1354C27.0017 24.1812 27.0017 24.2269 26.9574 24.2726L21.3034 29.9537C21.2773 29.9789 21.2517 29.9789 21.2267 29.9537C21.1983 29.924 21.1773 29.9194 21.1636 29.94L15.4722 24.18L21.1909 18.4783Z" fill="white"/>
<path d="M10.6227 19.2703L15.4722 24.18L21.1636 29.94L21.1142 30.1029L16.4642 34.7623C16.3847 34.8423 16.3057 34.8423 16.2273 34.7623L5.80398 24.2914C5.7841 24.2714 5.77296 24.2442 5.77296 24.2156C5.77296 24.1871 5.7841 24.1595 5.80398 24.1389L10.6227 19.2703Z" fill="#6941C6"/>
<path d="M62.3403 23.0177C62.3404 23.0383 62.3477 23.0581 62.3609 23.0738C62.3741 23.0895 62.3924 23.1 62.4126 23.1035C62.4327 23.107 62.4534 23.1032 62.4711 23.0928C62.4887 23.0825 62.5022 23.0662 62.5091 23.0469C63.242 20.9211 65.1784 20.0006 67.3006 20.4891C69.8131 21.0669 70.3722 23.2337 70.3977 25.596C70.425 28.2589 70.4676 30.1269 70.5256 31.2C70.621 32.9897 70.6534 34.9303 72.3051 35.58C72.3303 35.5899 72.3532 35.6049 72.3725 35.6239C72.3918 35.643 72.407 35.6658 72.4174 35.6909C72.4277 35.716 72.4329 35.743 72.4327 35.7702C72.4324 35.7974 72.4267 35.8242 72.4159 35.8491C72.4102 35.864 72.3886 35.8806 72.3511 35.8989C72.3295 35.9091 72.3045 35.9143 72.2761 35.9143C70.233 35.9154 68.2 35.9154 66.1773 35.9143C66.1659 35.9143 66.1546 35.9117 66.1443 35.9067C66.134 35.9017 66.1248 35.8945 66.1175 35.8855C66.1102 35.8766 66.1049 35.866 66.102 35.8547C66.0991 35.8434 66.0986 35.8316 66.1006 35.82C66.733 32.3503 66.7466 28.5377 66.4517 25.1914C66.375 24.3326 65.8432 23.0194 64.9125 22.7829C63.5847 22.4469 62.6318 24.6154 62.4443 25.6183C62.3886 25.9154 62.3466 26.7811 62.3182 28.2154C62.2841 29.9526 62.2631 31.6903 62.2551 33.4286C62.2517 34.6251 62.9455 35.1223 63.9409 35.5663C63.9789 35.5831 64.0099 35.6126 64.0289 35.6497C64.0478 35.6868 64.0534 35.7294 64.0448 35.7702C64.0362 35.8111 64.0139 35.8477 63.9816 35.8739C63.9494 35.9001 63.9091 35.9144 63.8676 35.9143H56.6676C56.6472 35.9143 56.6271 35.9091 56.6092 35.8992C56.5914 35.8893 56.5763 35.8751 56.5653 35.8577C56.5324 35.8063 56.533 35.7537 56.567 35.7C56.5818 35.6771 56.6074 35.6566 56.6437 35.6383C57.1261 35.4137 57.8267 35.1909 58.0824 34.6971C58.3278 34.2206 58.4523 33.7229 58.4557 33.204C58.4693 31.1069 58.4722 29.0103 58.4642 26.9143C58.4574 25.0851 58.4318 22.944 56.1665 22.4829C56.1464 22.4786 56.128 22.4689 56.1131 22.4547C56.0983 22.4406 56.0876 22.4225 56.0823 22.4027C56.077 22.3828 56.0773 22.3618 56.0831 22.3421C56.0889 22.3223 56.1001 22.3046 56.1153 22.2909C56.1381 22.2714 56.1795 22.2549 56.2398 22.2411C58.3727 21.7783 60.3528 20.9497 62.1801 19.7554C62.1964 19.7449 62.2152 19.7389 62.2346 19.738C62.2539 19.7372 62.2731 19.7416 62.2901 19.7508C62.307 19.7599 62.3211 19.7734 62.3309 19.79C62.3406 19.8065 62.3457 19.8254 62.3455 19.8446L62.3403 23.0177Z" fill="#6941C6"/>
<path d="M118.002 23.0571C118.002 23.0751 118.009 23.0925 118.02 23.1063C118.032 23.1202 118.048 23.1295 118.065 23.1327C118.083 23.136 118.101 23.133 118.116 23.1242C118.132 23.1154 118.144 23.1014 118.151 23.0846C119.146 20.5594 121.737 19.3286 124.28 20.4617C124.29 20.4662 124.3 20.4728 124.307 20.4811C124.315 20.4895 124.321 20.4994 124.324 20.5102C124.328 20.521 124.329 20.5325 124.328 20.544C124.327 20.5554 124.323 20.5665 124.318 20.5766L121.82 25.1023C121.811 25.1187 121.797 25.1318 121.78 25.1396C121.763 25.1475 121.744 25.1496 121.725 25.1458C121.707 25.142 121.69 25.1324 121.678 25.1184C121.665 25.1044 121.657 25.0868 121.655 25.068C121.512 23.6091 120.124 22.2806 118.875 23.7583C118.307 24.4326 118.02 25.2246 118.014 26.1343C118.002 28.46 117.982 30.788 117.956 33.1183C117.939 34.5309 118.437 35.16 119.746 35.5817C119.785 35.5943 119.816 35.612 119.841 35.6349C119.88 35.6691 119.902 35.6989 119.906 35.724C119.911 35.747 119.91 35.7708 119.905 35.7936C119.899 35.8164 119.888 35.8378 119.872 35.856C119.856 35.8742 119.837 35.8889 119.815 35.899C119.793 35.9091 119.769 35.9143 119.744 35.9143H112.33C112.304 35.9143 112.279 35.9056 112.258 35.8896C112.238 35.8736 112.223 35.8512 112.217 35.826C112.211 35.8008 112.213 35.7742 112.224 35.7504C112.234 35.7266 112.252 35.7071 112.275 35.6949C113.276 35.1583 114.068 34.9234 114.123 33.6C114.205 31.5943 114.202 29.1286 114.114 26.2029C114.053 24.1594 113.918 23.1823 111.822 22.4297C111.804 22.4231 111.788 22.4106 111.777 22.3944C111.767 22.3781 111.762 22.3589 111.763 22.3397C111.764 22.3205 111.771 22.3023 111.784 22.2879C111.796 22.2735 111.813 22.2637 111.832 22.26C113.989 21.7834 116.006 20.956 117.883 19.7777C117.957 19.732 117.994 19.7531 117.995 19.8411L118.002 23.0571Z" fill="#6941C6"/>
<path d="M103.009 36.2897C94.7148 34.5549 96.254 20.6554 104.581 20.0726C107.587 19.8617 110.001 21.6823 110.836 24.6326C111.201 25.9183 111.3 27.3446 111.261 28.6817C111.259 28.7317 111.241 28.7796 111.209 28.8177C111.177 28.8557 111.132 28.8815 111.084 28.8909C108.435 29.3914 105.772 29.4537 103.096 29.0777C102.452 28.9869 102.378 28.2103 103.047 28.2069C104.119 28.2011 105.226 28.0857 106.365 27.8606C106.65 27.804 106.824 27.684 106.87 27.372C107.083 25.9423 107.016 21.9497 104.848 21.8383C103.161 21.7509 102.327 23.8166 102.055 25.0886C101.705 26.7126 101.681 28.3303 101.983 29.9417C102.368 31.9954 103.716 34.8394 106.275 34.476C107.559 34.2943 108.569 33.3189 109.227 32.1926C109.281 32.1 109.347 32.0897 109.425 32.1617L109.967 32.6589C109.989 32.6788 110.005 32.7048 110.012 32.7337C110.02 32.7626 110.019 32.7932 110.01 32.8217C109.076 35.8217 105.811 36.876 103.009 36.2897Z" fill="#6941C6"/>
<path d="M70.967 23.544C70.6534 22.2583 71.5653 21.1183 72.7091 20.7103C74.8244 19.9543 77.4511 20.5543 78.2727 22.8549C78.4386 23.32 78.5386 24.2086 78.5727 25.5206C78.6284 27.5983 78.6864 29.6772 78.7466 31.7572C78.7841 33.0326 78.9733 35.0743 80.5688 35.5543C80.6049 35.5649 80.6359 35.5882 80.6561 35.6199C80.6764 35.6516 80.6846 35.6896 80.6792 35.7271C80.6739 35.7646 80.6553 35.7991 80.6269 35.8243C80.5985 35.8495 80.5622 35.8638 80.5244 35.8646L74.4903 35.928C74.3699 35.9292 74.3199 35.8697 74.3403 35.7497C74.5631 34.4252 74.6932 33.0697 74.7307 31.6834C74.808 28.848 74.7705 26.7154 74.6182 25.2857C74.5091 24.2657 74.2432 22.9354 73.079 22.6132C72.1722 22.3629 71.6114 22.9063 71.071 23.568C71.021 23.6297 70.9864 23.6217 70.967 23.544Z" fill="#6941C6"/>
<path d="M128.432 33.7549C128.44 33.7649 128.446 33.7764 128.449 33.7887C128.453 33.801 128.454 33.8139 128.452 33.8267C128.451 33.8394 128.447 33.8518 128.441 33.863C128.435 33.8743 128.427 33.8842 128.417 33.8923L125.369 36.3564C125.349 36.3727 125.324 36.3802 125.298 36.3774C125.272 36.3746 125.249 36.3617 125.233 36.3415L122.791 33.2874C122.783 33.2774 122.777 33.2659 122.774 33.2536C122.77 33.2413 122.769 33.2284 122.77 33.2156C122.772 33.2029 122.775 33.1905 122.782 33.1793C122.788 33.168 122.796 33.1581 122.806 33.15L125.853 30.6859C125.873 30.6696 125.899 30.6621 125.925 30.6649C125.95 30.6677 125.974 30.6806 125.99 30.7008L128.432 33.7549Z" fill="#6941C6"/>
</g>
<defs>
<clipPath id="clip0_16_1695">
<rect width="135" height="54" fill="white"/>
</clipPath>
</defs>
</svg>
