<svg width="262" height="257" viewBox="0 0 262 257" fill="none" xmlns="http://www.w3.org/2000/svg">
<circle cx="147.253" cy="129.253" r="104.151" transform="rotate(-43.6852 147.253 129.253)" fill="url(#paint0_linear_16_1854)"/>
<path d="M213.451 127.8C213.451 167.541 181.235 199.758 141.493 199.758C101.752 199.758 69.5357 167.541 69.5357 127.8C69.5357 88.0586 101.752 55.842 141.493 55.842C181.235 55.842 213.451 88.0586 213.451 127.8ZM95.9777 127.8C95.9777 152.937 116.356 173.316 141.493 173.316C166.631 173.316 187.009 152.937 187.009 127.8C187.009 102.662 166.631 82.284 141.493 82.284C116.356 82.284 95.9777 102.662 95.9777 127.8Z" fill="#E4E4E4"/>
<path d="M141.909 44.9341C155.158 44.9865 168.202 48.2147 179.946 54.3481C191.69 60.4815 201.793 69.3412 209.407 80.1845C217.02 91.0278 221.923 103.539 223.705 116.668C225.486 129.797 224.093 143.162 219.643 155.641C215.194 168.121 207.817 179.352 198.131 188.393C188.446 197.434 176.733 204.02 163.977 207.601C151.221 211.181 137.792 211.651 124.816 208.971C111.841 206.29 99.6971 200.538 89.4033 192.196L113.036 163.033C118.668 167.597 125.311 170.744 132.41 172.21C139.508 173.676 146.855 173.419 153.833 171.46C160.812 169.502 167.219 165.898 172.518 160.953C177.817 156.007 181.852 149.862 184.287 143.035C186.721 136.208 187.483 128.896 186.508 121.714C185.534 114.531 182.852 107.687 178.687 101.755C174.521 95.823 168.994 90.9761 162.57 87.6207C156.145 84.2653 149.009 82.4993 141.761 82.4706L141.909 44.9341Z" fill="#6941C6"/>
<path d="M241.837 128.275C241.745 151.548 233.575 174.067 218.723 191.985C203.871 209.903 183.259 222.109 160.407 226.516L150.1 173.08C160.572 171.06 170.018 165.467 176.824 157.256C183.63 149.045 187.374 138.725 187.416 128.06L241.837 128.275Z" fill="#42307D"/>
<path d="M126.199 129.281C129.14 129.281 129.287 130.702 129.287 131.364C129.287 133.177 127.008 133.447 125.954 133.447C124.361 133.447 122.891 132.908 122.695 131.29H118.847C119.117 135.309 122.597 136.853 125.93 136.853C128.895 136.853 132.669 136.167 133.282 132.418C133.576 130.408 132.693 128.57 130.659 127.737C132.301 127.026 133.159 125.384 132.84 123.473C132.326 120.214 128.919 119.062 126.077 119.062C122.817 119.062 119.436 120.361 119.117 124.208H122.915C123.185 122.787 124.704 122.542 126.052 122.542C128.601 122.542 129.091 123.742 129.091 124.478C129.067 126.07 127.204 126.169 125.954 126.169H123.577V129.281H126.199ZM148.663 119.38H136.092C136.092 122.615 136.092 125.531 136.092 128.742H142.659C143.811 128.742 145.87 129.134 145.845 131.045C145.845 133.006 143.639 133.349 142.708 133.349C141.287 133.349 139.522 132.761 139.522 131.217H135.748C135.773 135.285 138.787 136.731 142.757 136.731C145.894 136.731 149.619 135.26 149.619 131.045C149.643 126.61 146.335 125.458 142.659 125.458H139.645V122.811H148.663V119.38ZM155.53 119.258C152.785 119.258 151.462 121.218 151.462 123.179C151.462 125.164 152.785 127.124 155.53 127.124C158.25 127.124 159.598 125.164 159.598 123.179C159.598 121.218 158.25 119.258 155.53 119.258ZM164.303 119.38L153.03 136.535H156.927L168.151 119.38H164.303ZM165.7 128.815C162.98 128.815 161.632 130.776 161.632 132.736C161.632 134.721 162.98 136.682 165.7 136.682C168.42 136.682 169.768 134.721 169.768 132.736C169.768 130.776 168.42 128.815 165.7 128.815ZM165.7 131.364C166.607 131.364 167.048 132.05 167.048 132.761C167.048 133.471 166.607 134.133 165.7 134.133C164.818 134.133 164.328 133.471 164.328 132.761C164.328 132.05 164.818 131.364 165.7 131.364ZM155.53 121.757C156.461 121.757 156.902 122.468 156.902 123.179C156.902 123.889 156.461 124.576 155.53 124.576C154.599 124.576 154.133 123.889 154.133 123.179C154.133 122.468 154.599 121.757 155.53 121.757Z" fill="#3A3A3A"/>
<defs>
<linearGradient id="paint0_linear_16_1854" x1="211.818" y1="189.105" x2="94.9421" y2="36.4125" gradientUnits="userSpaceOnUse">
<stop stop-color="white"/>
<stop offset="1" stop-color="#F5F5F5"/>
</linearGradient>
</defs>
</svg>
