<svg width="210" height="75" viewBox="0 0 210 75" fill="none" xmlns="http://www.w3.org/2000/svg">
<g clip-path="url(#clip0_16_1822)">
<mask id="mask0_16_1822" style="mask-type:luminance" maskUnits="userSpaceOnUse" x="0" y="0" width="210" height="75">
<path d="M0 0H210V75H0V0Z" fill="white"/>
</mask>
<g mask="url(#mask0_16_1822)">
<path d="M33.0328 25.5024C32.9902 25.5532 32.9672 25.6071 32.9636 25.6643" stroke="white"/>
<path d="M32.9636 25.6643L24.0678 33.5834" stroke="white"/>
<path d="M24.0678 33.5833L16.5242 26.7643" stroke="white"/>
<path d="M32.8443 41.8095L32.9215 41.5833" stroke="white"/>
<path d="M32.9212 41.5833C32.9424 41.5548 32.9751 41.5611 33.0193 41.6024C33.0582 41.6373 33.098 41.6373 33.1386 41.6024L41.9337 33.7119C42.0026 33.6484 42.0026 33.5849 41.9337 33.5214L33.2526 25.7119C33.2031 25.6675 33.143 25.6484 33.0723 25.6548L32.9636 25.6643" stroke="white"/>
<path d="M32.9212 41.5833L24.0678 33.5833" stroke="white"/>
</g>
<path d="M72.6621 34.6452C72.6409 38.4548 72.6383 42.2627 72.6542 46.0691C72.6595 47.3976 73.5106 48.0048 74.9637 48.031C79.694 48.1167 82.0406 45.8476 84.5781 42.4643C84.67 42.3421 84.7159 42.3548 84.7159 42.5024V49.7024C84.7159 49.8214 84.6496 49.881 84.5171 49.881H62.9072C62.8569 49.8811 62.8074 49.8689 62.7643 49.8456C62.7211 49.8223 62.6859 49.7889 62.6624 49.7489C62.6389 49.7089 62.628 49.6639 62.631 49.6188C62.634 49.5736 62.6506 49.5301 62.6792 49.4929C62.939 49.1524 63.3023 49.1952 63.6815 49.1C65.3917 48.6738 65.8796 46.9548 65.8902 45.519C65.9397 38.4619 65.9573 31.404 65.9432 24.3452C65.9379 22.3619 65.3121 20.6048 62.8542 20.25C62.8137 20.2441 62.7757 20.229 62.7436 20.206C62.7116 20.1831 62.6866 20.1532 62.6712 20.1191C62.6005 19.9587 62.6129 19.8325 62.7084 19.7405C62.772 19.677 62.8834 19.6452 63.0424 19.6452C68.4551 19.6437 73.8677 19.6405 79.2803 19.6357C80.721 19.6341 82.0096 19.2659 83.1462 18.531C83.1699 18.5161 83.1975 18.5069 83.2262 18.5042C83.255 18.5016 83.284 18.5056 83.3106 18.5158C83.3371 18.5261 83.3603 18.5422 83.378 18.5628C83.3956 18.5834 83.4071 18.6077 83.4114 18.6333L84.7451 27.131C84.7494 27.1595 84.743 27.1885 84.7271 27.2135C84.7111 27.2385 84.6864 27.2581 84.6569 27.2692C84.6273 27.2803 84.5944 27.2824 84.5634 27.275C84.5323 27.2677 84.5049 27.2514 84.4852 27.2286C82.8784 25.3643 80.2614 22.9762 77.7822 22.0857C76.1621 21.5048 72.6807 20.7595 72.6674 23.3952C72.6515 26.7762 72.6471 30.1198 72.6542 33.4262C72.6542 33.5754 72.7364 33.6452 72.9008 33.6357C76.1816 33.4722 79.4615 33.4865 82.7405 33.6786C82.882 33.6881 82.9111 33.7437 82.8281 33.8452C80.789 36.3262 77.8352 37.9833 74.6455 35.869C74.0215 35.4564 73.4125 35.0262 72.8186 34.5786C72.7143 34.5008 72.6621 34.523 72.6621 34.6452Z" fill="white"/>
<path d="M33.0326 25.5024C32.9901 25.5532 32.9672 25.6071 32.9636 25.6643L24.0678 33.5833L16.5242 26.7643L25.2689 18.8809C25.3158 18.8385 25.3795 18.8144 25.446 18.8139C25.5126 18.8135 25.5767 18.8367 25.6242 18.8786L33.0326 25.5024Z" fill="white"/>
<path d="M32.8443 41.8095L32.9212 41.5834C32.9424 41.5548 32.9751 41.5611 33.0193 41.6024C33.0582 41.6373 33.098 41.6373 33.1386 41.6024L41.9337 33.7119C42.0027 33.6484 42.0027 33.5849 41.9337 33.5215L33.2527 25.7119C33.2032 25.6675 33.1431 25.6484 33.0724 25.6548L32.9636 25.6643C32.9672 25.6072 32.9902 25.5532 33.0326 25.5024L40.1758 19.0238C40.2174 18.9861 40.267 18.9562 40.3216 18.9357C40.3762 18.9153 40.4348 18.9048 40.494 18.9048C40.5531 18.9048 40.6117 18.9153 40.6663 18.9357C40.7209 18.9562 40.7705 18.9861 40.8121 19.0238L56.8591 33.5262C56.8874 33.5523 56.9027 33.5876 56.9017 33.6246C56.9007 33.6616 56.8835 33.6973 56.8538 33.7238L40.8731 48.1524C40.7952 48.2234 40.6888 48.2635 40.5775 48.2639C40.4661 48.2644 40.3588 48.2251 40.2792 48.1548L33.1254 41.8405C33.0741 41.7945 33.0114 41.7754 32.9371 41.7834C32.9018 41.7881 32.8708 41.7969 32.8443 41.8095Z" fill="white"/>
<path d="M124.658 19.9643C124.65 19.9358 124.649 19.906 124.655 19.8771C124.661 19.8481 124.675 19.8207 124.694 19.7969C124.714 19.773 124.739 19.7532 124.768 19.7389C124.797 19.7246 124.829 19.7162 124.862 19.7143L133.933 19.2619C133.969 19.26 134.004 19.2645 134.037 19.2752C134.07 19.2859 134.101 19.3026 134.126 19.3242C134.152 19.3458 134.173 19.3719 134.187 19.4009C134.201 19.4299 134.209 19.4612 134.209 19.4929L134.32 30.0262C134.32 30.0468 134.327 30.067 134.34 30.0842C134.352 30.1014 134.37 30.1149 134.392 30.1232C134.413 30.1315 134.436 30.1342 134.46 30.1309C134.483 30.1276 134.504 30.1186 134.522 30.1048C136.9 28.1619 140.605 27.3262 143.619 28.5143C147.886 30.1952 149.498 35.2119 149.392 39.0191C149.27 43.4238 146.939 48.0167 142.113 49.7381C139.619 50.627 137.131 50.3373 134.649 48.8691C134.553 48.8119 134.441 48.7787 134.325 48.7729C134.209 48.767 134.093 48.7887 133.989 48.8357C132.422 49.5476 129.967 50.4548 128.174 50.3381C128.079 50.3333 128.034 50.2881 128.039 50.2024C128.431 44.104 128.588 37.45 128.508 30.2405C128.498 29.3595 128.455 28.7445 128.381 28.3952C127.989 26.5476 128.034 24.5429 127.509 22.5452C127.183 21.3072 126.332 20.5206 124.955 20.1857C124.789 20.146 124.69 20.0722 124.658 19.9643ZM139.299 48.3418C139.888 48.316 140.459 48.0615 140.978 47.5929C141.498 47.1243 141.957 46.4508 142.329 45.6108C142.7 44.7708 142.977 43.7808 143.144 42.6973C143.311 41.6138 143.364 40.458 143.301 39.296C143.238 38.1339 143.059 36.9883 142.775 35.9246C142.492 34.8609 142.108 33.8999 141.647 33.0965C141.186 32.2931 140.656 31.663 140.088 31.2421C139.52 30.8213 138.924 30.6181 138.335 30.6439C137.747 30.6698 137.176 30.9243 136.656 31.3929C136.137 31.8614 135.678 32.535 135.306 33.3749C134.935 34.2149 134.657 35.2049 134.491 36.2884C134.324 37.3719 134.27 38.5277 134.334 39.6898C134.397 40.8518 134.576 41.9974 134.859 43.0611C135.143 44.1248 135.527 45.0858 135.988 45.8893C136.449 46.6927 136.979 47.3228 137.547 47.7436C138.115 48.1644 138.711 48.3677 139.299 48.3418Z" fill="white"/>
<path d="M32.9636 25.6643L33.0724 25.6548C33.1431 25.6484 33.2032 25.6675 33.2527 25.7119L41.9337 33.5214C42.0027 33.5849 42.0027 33.6484 41.9337 33.7119L33.1386 41.6024C33.098 41.6373 33.0582 41.6373 33.0193 41.6024C32.9751 41.5611 32.9424 41.5548 32.9212 41.5833L24.0678 33.5833L32.9636 25.6643Z" fill="white"/>
<path d="M16.5243 26.7643L24.0678 33.5833L32.9212 41.5833L32.8443 41.8095L25.611 48.2809C25.4873 48.3921 25.3644 48.3921 25.2424 48.2809L9.02842 33.7381C8.99749 33.7103 8.98016 33.6725 8.98016 33.6328C8.98016 33.5932 8.99749 33.5549 9.02842 33.5262L16.5243 26.7643Z" fill="white"/>
<path d="M96.9738 31.9691C96.974 31.9976 96.9853 32.0252 97.0059 32.047C97.0264 32.0688 97.0549 32.0833 97.0862 32.0882C97.1175 32.093 97.1497 32.0878 97.1772 32.0734C97.2047 32.059 97.2256 32.0364 97.2363 32.0095C98.3765 29.0571 101.389 27.7786 104.69 28.4571C108.598 29.2595 109.468 32.2691 109.508 35.55C109.55 39.2484 109.616 41.8429 109.706 43.3333C109.855 45.8191 109.905 48.5143 112.475 49.4167C112.514 49.4305 112.549 49.4512 112.579 49.4777C112.609 49.5042 112.633 49.5358 112.649 49.5707C112.665 49.6056 112.673 49.643 112.673 49.6808C112.673 49.7186 112.664 49.7559 112.647 49.7905C112.638 49.8111 112.605 49.8341 112.546 49.8595C112.513 49.8738 112.474 49.881 112.43 49.881C109.251 49.8825 106.089 49.8825 102.942 49.881C102.925 49.8809 102.907 49.8773 102.891 49.8704C102.875 49.8635 102.861 49.8535 102.849 49.841C102.838 49.8285 102.83 49.8139 102.825 49.7982C102.821 49.7825 102.82 49.766 102.823 49.75C103.807 44.931 103.828 39.6357 103.369 34.9881C103.25 33.7952 102.423 31.9714 100.975 31.6429C98.9094 31.1762 97.4272 34.1881 97.1356 35.581C97.049 35.9937 96.9836 37.196 96.9394 39.1881C96.8863 41.6008 96.8536 44.0143 96.8413 46.4286C96.836 48.0905 97.9151 48.781 99.4636 49.3976C99.5227 49.421 99.571 49.4619 99.6004 49.5135C99.6299 49.5651 99.6386 49.6242 99.6252 49.6809C99.6119 49.7376 99.5772 49.7884 99.527 49.8249C99.4768 49.8613 99.4141 49.8811 99.3496 49.881H88.1496C88.1179 49.881 88.0866 49.8738 88.0588 49.86C88.031 49.8463 88.0075 49.8265 87.9905 49.8024C87.9392 49.731 87.9401 49.6579 87.9932 49.5833C88.0161 49.5516 88.0559 49.523 88.1125 49.4976C88.8629 49.1857 89.9526 48.8762 90.3504 48.1905C90.7322 47.5286 90.9257 46.8373 90.931 46.1167C90.9523 43.204 90.9567 40.2921 90.9443 37.381C90.9337 34.8405 90.8939 31.8667 87.3701 31.2262C87.3389 31.2203 87.3102 31.2068 87.287 31.1871C87.2639 31.1674 87.2473 31.1424 87.2391 31.1148C87.2308 31.0872 87.2313 31.058 87.2404 31.0306C87.2494 31.0032 87.2668 30.9786 87.2905 30.9595C87.3259 30.9325 87.3904 30.9095 87.4841 30.8905C90.802 30.2476 93.8822 29.0968 96.7246 27.4381C96.7499 27.4234 96.7792 27.4151 96.8093 27.414C96.8394 27.4128 96.8692 27.4189 96.8956 27.4316C96.922 27.4443 96.9439 27.4631 96.9591 27.4861C96.9743 27.509 96.9821 27.5352 96.9818 27.5619L96.9738 31.9691Z" fill="white"/>
<path d="M183.559 32.0238C183.559 32.0488 183.569 32.0729 183.587 32.0921C183.605 32.1113 183.629 32.1243 183.657 32.1288C183.684 32.1333 183.713 32.1291 183.737 32.1169C183.761 32.1047 183.78 32.0852 183.79 32.0619C185.338 28.5547 189.369 26.8452 193.325 28.419C193.341 28.4252 193.355 28.4344 193.367 28.446C193.379 28.4576 193.388 28.4714 193.393 28.4864C193.399 28.5014 193.4 28.5174 193.399 28.5333C193.397 28.5491 193.392 28.5646 193.383 28.5785L189.499 34.8643C189.484 34.8871 189.462 34.9053 189.436 34.9161C189.409 34.927 189.379 34.93 189.351 34.9247C189.322 34.9194 189.296 34.9061 189.276 34.8867C189.257 34.8672 189.244 34.8427 189.241 34.8166C189.019 32.7904 186.86 30.9452 184.917 32.9976C184.033 33.9341 183.587 35.0341 183.578 36.2976C183.558 39.5278 183.528 42.7611 183.488 45.9976C183.461 47.9595 184.235 48.8333 186.272 49.419C186.332 49.4365 186.381 49.4611 186.42 49.4928C186.48 49.5405 186.514 49.5817 186.521 49.6166C186.528 49.6486 186.527 49.6816 186.518 49.7133C186.509 49.745 186.492 49.7746 186.468 49.8C186.443 49.8253 186.413 49.8457 186.379 49.8597C186.344 49.8737 186.307 49.881 186.269 49.8809H174.735C174.695 49.8809 174.656 49.8689 174.624 49.8466C174.592 49.8244 174.57 49.7933 174.56 49.7583C174.55 49.7233 174.554 49.6863 174.57 49.6533C174.586 49.6203 174.615 49.5932 174.65 49.5762C176.206 48.8309 177.439 48.5047 177.524 46.6666C177.652 43.8809 177.647 40.4563 177.511 36.3928C177.416 33.5547 177.206 32.1976 173.945 31.1524C173.917 31.1431 173.892 31.1259 173.876 31.1033C173.859 31.0807 173.851 31.0541 173.853 31.0273C173.855 31.0006 173.866 30.9754 173.886 30.9554C173.905 30.9354 173.932 30.9218 173.961 30.9166C177.316 30.2547 180.453 29.1055 183.374 27.469C183.488 27.4055 183.547 27.4349 183.549 27.5571L183.559 32.0238Z" fill="white"/>
<path d="M160.236 50.4024C147.334 47.9929 149.728 28.6881 162.681 27.8786C167.358 27.5857 171.113 30.1143 172.412 34.2119C172.98 35.9976 173.133 37.9786 173.072 39.8357C173.07 39.9051 173.042 39.9717 172.991 40.0245C172.941 40.0773 172.873 40.1132 172.797 40.1262C168.676 40.8214 164.534 40.9079 160.372 40.3857C159.369 40.2595 159.255 39.1809 160.295 39.1762C161.963 39.1683 163.684 39.0079 165.457 38.6952C165.9 38.6167 166.17 38.45 166.242 38.0167C166.574 36.0309 166.47 30.4857 163.097 30.3309C160.472 30.2095 159.176 33.0786 158.752 34.8452C158.207 37.1008 158.17 39.3476 158.64 41.5857C159.239 44.4381 161.337 48.3881 165.317 47.8833C167.313 47.631 168.886 46.2762 169.909 44.7119C169.992 44.5833 170.095 44.569 170.217 44.669L171.06 45.3595C171.094 45.3873 171.118 45.4233 171.13 45.4635C171.142 45.5036 171.14 45.546 171.126 45.5857C169.673 49.7524 164.595 51.2167 160.236 50.4024Z" fill="white"/>
<path d="M110.393 32.7C109.905 30.9143 111.324 29.3309 113.103 28.7643C116.394 27.7143 120.48 28.5476 121.758 31.7429C122.016 32.3889 122.171 33.623 122.224 35.4452C122.311 38.3309 122.401 41.2182 122.495 44.1071C122.553 45.8786 122.847 48.7143 125.329 49.3809C125.385 49.3957 125.434 49.428 125.465 49.472C125.497 49.5161 125.509 49.5689 125.501 49.621C125.493 49.6731 125.464 49.721 125.42 49.756C125.375 49.791 125.319 49.8108 125.26 49.8119L115.874 49.9C115.686 49.9016 115.609 49.819 115.641 49.6524C115.987 47.8127 116.189 45.9302 116.248 44.0048C116.368 40.0667 116.31 37.1048 116.073 35.119C115.903 33.7024 115.489 31.8548 113.678 31.4071C112.268 31.0595 111.395 31.8143 110.555 32.7333C110.477 32.819 110.423 32.8079 110.393 32.7Z" fill="white"/>
<path d="M199.782 46.8818C199.795 46.8957 199.804 46.9116 199.81 46.9287C199.815 46.9458 199.817 46.9638 199.815 46.9815C199.813 46.9992 199.807 47.0164 199.797 47.032C199.788 47.0476 199.775 47.0614 199.759 47.0726L195.019 50.495C194.988 50.5176 194.948 50.5281 194.908 50.5242C194.868 50.5203 194.832 50.5023 194.807 50.4743L191.008 46.2325C190.996 46.2186 190.987 46.2026 190.981 46.1855C190.976 46.1684 190.974 46.1505 190.976 46.1328C190.978 46.1151 190.984 46.0979 190.994 46.0823C191.003 46.0666 191.016 46.0529 191.032 46.0417L195.772 42.6192C195.803 42.5967 195.843 42.5862 195.883 42.5901C195.923 42.594 195.959 42.6119 195.984 42.64L199.782 46.8818Z" fill="white"/>
</g>
<defs>
<clipPath id="clip0_16_1822">
<rect width="210" height="75" fill="white"/>
</clipPath>
</defs>
</svg>
