<svg width="480" height="305" viewBox="0 0 480 305" fill="none" xmlns="http://www.w3.org/2000/svg">
<g clip-path="url(#clip0_29_2538)">
<rect width="480" height="305" rx="18.8509" fill="white"/>
<path d="M51.2444 55.6847L45.4534 48.6872C49.495 47.2395 50.3094 44.7964 50.3395 42.0517C50.3395 38.3418 47.625 34.9336 42.5277 34.9336C39.1195 34.9336 35.9525 34.9336 32.5141 34.9336V56.0466H37.2193V49.1095H40.6275L46.0264 56.0466H51.2444V55.6847ZM42.5277 38.9752C44.7295 38.9752 45.6645 40.7246 45.6946 42.1723C45.6946 43.4994 44.7596 45.1282 42.588 45.1282H37.2193V38.9752H42.5277ZM67.6279 50.0143C68.5629 43.9217 65.2452 40.7547 60.178 40.7547C55.322 40.7547 52.2757 43.9217 52.2757 48.4459C52.2757 53.2114 55.2316 56.3784 60.6305 56.3784C62.8624 56.3784 65.4261 55.745 67.0247 54.1766L64.5816 51.4621C63.526 52.3669 61.8972 52.6384 60.7209 52.6384C58.2779 52.6384 56.8904 51.4621 56.6793 50.0143H67.6279ZM56.6793 46.8474C57.1016 45.3694 58.4287 44.4646 60.178 44.4646C61.9877 44.4646 63.6466 45.2186 63.7371 46.8474H56.6793ZM75.4534 46.6061L73.3119 41.1468H68.4258L74.82 56.1371H79.5855L85.9797 41.1468H81.0936L78.9521 46.6061L77.2028 51.5224L75.4534 46.6061ZM101.913 50.0143C102.848 43.9217 99.5303 40.7547 94.4631 40.7547C89.6071 40.7547 86.5608 43.9217 86.5608 48.4459C86.5608 53.2114 89.5166 56.3784 94.9155 56.3784C97.1475 56.3784 99.7112 55.745 101.31 54.1766L98.8667 51.4621C97.811 52.3669 96.1823 52.6384 95.006 52.6384C92.563 52.6384 91.1755 51.4621 90.9644 50.0143H101.913ZM90.9644 46.8474C91.3867 45.3694 92.7138 44.4646 94.4631 44.4646C96.2728 44.4646 97.9317 45.2186 98.0222 46.8474H90.9644ZM119.924 56.0466V48.1443C119.924 42.3533 117.059 40.7849 113.711 40.7849C111.901 40.7547 110.212 41.3278 108.885 43.047L108.734 41.1468H104.813V56.0466H109.096V48.3554C109.096 46.4251 110.453 44.6757 112.474 44.7059C114.555 44.7059 115.55 45.8822 115.55 48.1745V56.0466H119.924ZM123.188 41.1468V49.0491C123.188 54.8401 126.053 56.3482 129.401 56.3482C131.211 56.3784 132.9 55.8656 134.227 54.0861L134.378 56.0466H138.299V41.1468H134.016V48.838C134.016 50.7683 132.658 52.5177 130.638 52.4875C128.556 52.4875 127.561 51.3113 127.561 49.019V41.1468H123.188ZM156.492 50.0143C157.427 43.9217 154.11 40.7547 149.042 40.7547C144.186 40.7547 141.14 43.9217 141.14 48.4459C141.14 53.2114 144.096 56.3784 149.495 56.3784C151.727 56.3784 154.29 55.745 155.889 54.1766L153.446 51.4621C152.39 52.3669 150.762 52.6384 149.585 52.6384C147.142 52.6384 145.755 51.4621 145.544 50.0143H156.492ZM145.544 46.8474C145.966 45.3694 147.293 44.4646 149.042 44.4646C150.852 44.4646 152.511 45.2186 152.601 46.8474H145.544Z" fill="#101828"/>
<path d="M32.286 93.0958V91.1164C32.286 89.9552 33.5264 89.3086 34.8064 89.3086C36.0863 89.3086 37.2476 89.8232 37.2871 90.8393H38.4352C38.3692 89.1107 36.7065 88.3321 34.7932 88.3321C32.9722 88.3321 31.1512 89.2162 31.1512 91.1032V94.8772C31.1512 96.9621 33.0777 97.8594 34.8987 97.8594C36.6933 97.8594 38.6067 96.9885 38.6067 94.9168C38.6067 92.7659 36.7065 91.9741 34.9119 91.9741C33.9618 91.9741 32.893 92.2644 32.286 93.0958ZM34.8987 96.8037C33.6715 96.8037 32.3124 96.2891 32.3124 94.9168C32.3124 93.6104 33.6715 93.0034 34.9251 93.0034C36.1787 93.0034 37.4587 93.5444 37.4587 94.9168C37.4587 96.3023 36.1259 96.7905 34.8987 96.8037ZM40.1161 92.1721V94.0195C40.1161 99.1394 47.5848 99.1262 47.5848 94.0195V92.1721C47.5848 87.0654 40.1161 87.0522 40.1161 92.1721ZM41.2641 94.0195V92.1721C41.2641 88.4905 46.4368 88.5169 46.4368 92.1589V94.0063C46.4368 97.6878 41.2641 97.701 41.2641 94.0195ZM49.6358 97.7142H50.7706V93.3729L55.2703 97.7142H56.6954V97.6351L51.8658 92.9242L56.2996 88.5433V88.4773H54.8613L50.7706 92.5547V88.4773H49.6358V97.7142Z" fill="#101828"/>
<path d="M79.1737 97.0823L529.71 95.1973" stroke="#E4E4E4" stroke-width="1.88509"/>
<path d="M35.994 141.959V143.899H37.1552V141.959H38.2768V140.89H37.1552V134.662H35.3078L30.5046 140.692L30.6629 141.959H35.994ZM35.994 140.89H31.7186L35.994 135.533V140.89ZM39.6908 138.357V140.204C39.6908 145.324 47.1595 145.311 47.1595 140.204V138.357C47.1595 133.25 39.6908 133.237 39.6908 138.357ZM40.8388 140.204V138.357C40.8388 134.675 46.0115 134.702 46.0115 138.344V140.191C46.0115 143.873 40.8388 143.886 40.8388 140.204ZM49.2105 143.899H50.3454V139.558L54.8451 143.899H56.2702V143.82L51.4406 139.109L55.8743 134.728V134.662H54.436L50.3454 138.739V134.662H49.2105V143.899Z" fill="#101828"/>
<path d="M79.1737 143.267L529.71 141.382" stroke="#E4E4E4" stroke-width="1.88509"/>
<path d="M32.2068 183.407C32.22 182.14 33.5792 181.744 34.714 181.744C35.8884 181.77 37.142 182.166 37.142 183.512C37.142 184.845 35.6245 185.188 34.648 185.188C32.893 185.188 30.9928 185.769 30.9928 187.854V190.084H38.2372V188.988H32.154V187.854C32.154 186.534 33.5792 186.27 34.6612 186.257C36.4426 186.257 38.2768 185.597 38.2768 183.499C38.2768 181.441 36.4294 180.741 34.714 180.741C33.0118 180.741 31.138 181.348 31.0588 183.407H32.2068ZM39.8712 184.542V186.389C39.8712 191.509 47.3399 191.496 47.3399 186.389V184.542C47.3399 179.435 39.8712 179.422 39.8712 184.542ZM41.0192 186.389V184.542C41.0192 180.86 46.1919 180.886 46.1919 184.528V186.376C46.1919 190.057 41.0192 190.07 41.0192 186.389ZM49.3909 190.084H50.5258V185.742L55.0255 190.084H56.4506V190.005L51.621 185.294L56.0547 180.913V180.847H54.6164L50.5258 184.924V180.847H49.3909V190.084Z" fill="#101828"/>
<path d="M79.1737 189.452L529.71 187.567" stroke="#E4E4E4" stroke-width="1.88509"/>
<path d="M75.6884 261.906V271.156H76.8364V267.289H81.8771V266.221H76.8364V263.001H82.1015V261.906H75.6884ZM89.3892 270.1L88.6634 269.44C88.2279 269.968 87.3306 270.258 86.5917 270.258C85.3381 270.258 84.3484 269.506 84.2297 268.306H89.7718C90.0225 265.706 88.505 264.479 86.5125 264.479C84.5464 264.479 83.1344 265.891 83.1344 267.857C83.1344 269.929 84.5464 271.261 86.5653 271.261C87.5814 271.261 88.7162 270.879 89.376 270.1H89.3892ZM88.7426 267.395H84.2297C84.4144 266.141 85.4041 265.455 86.5389 265.455C87.8189 265.455 88.6898 266.141 88.7426 267.408V267.395ZM92.3573 261.906H91.2753V271.143H92.3046L92.3573 269.955C92.872 270.839 93.8221 271.261 94.7853 271.261C96.6591 271.261 98.0975 270.034 98.0975 267.883C98.0975 265.693 96.6591 264.505 94.7985 264.505C93.8748 264.505 92.8192 264.927 92.3573 265.812V261.906ZM94.7194 265.521C95.9861 265.521 97.0154 266.353 97.0154 267.883C97.0154 269.388 95.9861 270.245 94.7194 270.245C93.4262 270.245 92.4101 269.295 92.4101 267.87C92.4101 266.471 93.4394 265.521 94.7194 265.521ZM102.75 270.179V271.143H107.289V270.179H105.613V261.906L102.842 262.724V263.779L104.465 263.344V270.179H102.75ZM108.449 265.6V267.448C108.449 272.568 115.918 272.555 115.918 267.448V265.6C115.918 260.494 108.449 260.481 108.449 265.6ZM109.597 267.448V265.6C109.597 261.919 114.77 261.945 114.77 265.587V267.435C114.77 271.116 109.597 271.129 109.597 267.448Z" fill="#101828"/>
<path d="M158.632 261.906V271.156H159.78V267.289H164.821V266.221H159.78V263.001H165.045V261.906H158.632ZM172.333 270.1L171.607 269.44C171.172 269.968 170.275 270.258 169.536 270.258C168.282 270.258 167.292 269.506 167.174 268.306H172.716C172.967 265.706 171.449 264.479 169.456 264.479C167.49 264.479 166.078 265.891 166.078 267.857C166.078 269.929 167.49 271.261 169.509 271.261C170.525 271.261 171.66 270.879 172.32 270.1H172.333ZM171.687 267.395H167.174C167.358 266.141 168.348 265.455 169.483 265.455C170.763 265.455 171.634 266.141 171.687 267.408V267.395ZM175.301 261.906H174.219V271.143H175.249L175.301 269.955C175.816 270.839 176.766 271.261 177.729 271.261C179.603 271.261 181.041 270.034 181.041 267.883C181.041 265.693 179.603 264.505 177.743 264.505C176.819 264.505 175.763 264.927 175.301 265.812V261.906ZM177.663 265.521C178.93 265.521 179.959 266.353 179.959 267.883C179.959 269.388 178.93 270.245 177.663 270.245C176.37 270.245 175.354 269.295 175.354 267.87C175.354 266.471 176.383 265.521 177.663 265.521ZM185.694 270.179V271.143H190.233V270.179H188.557V261.906L185.786 262.724V263.779L187.409 263.344V270.179H185.694ZM191.261 270.179V271.143H195.8V270.179H194.124V261.906L191.353 262.724V263.779L192.976 263.344V270.179H191.261Z" fill="#101828"/>
<path d="M238.749 261.906V271.156H239.897V267.289H244.937V266.221H239.897V263.001H245.162V261.906H238.749ZM252.449 270.1L251.724 269.44C251.288 269.968 250.391 270.258 249.652 270.258C248.398 270.258 247.409 269.506 247.29 268.306H252.832C253.083 265.706 251.565 264.479 249.573 264.479C247.607 264.479 246.195 265.891 246.195 267.857C246.195 269.929 247.607 271.261 249.626 271.261C250.642 271.261 251.776 270.879 252.436 270.1H252.449ZM251.803 267.395H247.29C247.475 266.141 248.464 265.455 249.599 265.455C250.879 265.455 251.75 266.141 251.803 267.408V267.395ZM255.418 261.906H254.336V271.143H255.365L255.418 269.955C255.932 270.839 256.882 271.261 257.846 271.261C259.719 271.261 261.158 270.034 261.158 267.883C261.158 265.693 259.719 264.505 257.859 264.505C256.935 264.505 255.879 264.927 255.418 265.812V261.906ZM257.78 265.521C259.046 265.521 260.076 266.353 260.076 267.883C260.076 269.388 259.046 270.245 257.78 270.245C256.486 270.245 255.47 269.295 255.47 267.87C255.47 266.471 256.5 265.521 257.78 265.521ZM265.81 270.179V271.143H270.35V270.179H268.674V261.906L265.903 262.724V263.779L267.526 263.344V270.179H265.81ZM272.736 264.466C272.75 263.199 274.109 262.803 275.243 262.803C276.418 262.829 277.671 263.225 277.671 264.571C277.671 265.904 276.154 266.247 275.177 266.247C273.422 266.247 271.522 266.828 271.522 268.913V271.143H278.767V270.047H272.684V268.913C272.684 267.593 274.109 267.329 275.191 267.316C276.972 267.316 278.806 266.656 278.806 264.558C278.806 262.499 276.959 261.8 275.243 261.8C273.541 261.8 271.667 262.407 271.588 264.466H272.736Z" fill="#101828"/>
<path d="M321.693 261.906V271.156H322.841V267.289H327.882V266.221H322.841V263.001H328.106V261.906H321.693ZM335.394 270.1L334.668 269.44C334.232 269.968 333.335 270.258 332.596 270.258C331.342 270.258 330.353 269.506 330.234 268.306H335.776C336.027 265.706 334.509 264.479 332.517 264.479C330.551 264.479 329.139 265.891 329.139 267.857C329.139 269.929 330.551 271.261 332.57 271.261C333.586 271.261 334.721 270.879 335.38 270.1H335.394ZM334.747 267.395H330.234C330.419 266.141 331.408 265.455 332.543 265.455C333.823 265.455 334.694 266.141 334.747 267.408V267.395ZM338.362 261.906H337.28V271.143H338.309L338.362 269.955C338.876 270.839 339.826 271.261 340.79 271.261C342.664 271.261 344.102 270.034 344.102 267.883C344.102 265.693 342.664 264.505 340.803 264.505C339.879 264.505 338.824 264.927 338.362 265.812V261.906ZM340.724 265.521C341.991 265.521 343.02 266.353 343.02 267.883C343.02 269.388 341.991 270.245 340.724 270.245C339.431 270.245 338.415 269.295 338.415 267.87C338.415 266.471 339.444 265.521 340.724 265.521ZM348.754 270.179V271.143H353.294V270.179H351.618V261.906L348.847 262.724V263.779L350.47 263.344V270.179H348.754ZM354.506 264.307H355.641C355.641 263.067 357.066 262.816 358.056 262.816C359.731 262.816 360.431 263.621 360.418 264.386C360.404 265.257 359.454 265.917 358.029 265.917H356.617V266.88H358.108C359.89 266.88 360.589 267.751 360.589 268.53C360.589 269.599 359.52 270.192 358.056 270.192C357.066 270.192 355.509 270.008 355.496 268.622H354.348C354.348 270.668 356.367 271.248 358.029 271.248C360.101 271.248 361.737 270.311 361.737 268.49C361.737 267.461 360.906 266.616 359.903 266.366C360.866 266.141 361.552 265.323 361.552 264.373C361.539 262.737 360.035 261.76 358.042 261.76C356.419 261.76 354.493 262.341 354.48 264.294L354.506 264.307Z" fill="#101828"/>
<path d="M404.637 261.906V271.156H405.785V267.289H410.825V266.221H405.785V263.001H411.05V261.906H404.637ZM418.338 270.1L417.612 269.44C417.176 269.968 416.279 270.258 415.54 270.258C414.286 270.258 413.297 269.506 413.178 268.306H418.72C418.971 265.706 417.453 264.479 415.461 264.479C413.495 264.479 412.083 265.891 412.083 267.857C412.083 269.929 413.495 271.261 415.514 271.261C416.53 271.261 417.665 270.879 418.324 270.1H418.338ZM417.691 267.395H413.178C413.363 266.141 414.352 265.455 415.487 265.455C416.767 265.455 417.638 266.141 417.691 267.408V267.395ZM421.306 261.906H420.224V271.143H421.253L421.306 269.955C421.82 270.839 422.77 271.261 423.734 271.261C425.607 271.261 427.046 270.034 427.046 267.883C427.046 265.693 425.607 264.505 423.747 264.505C422.823 264.505 421.768 264.927 421.306 265.812V261.906ZM423.668 265.521C424.935 265.521 425.964 266.353 425.964 267.883C425.964 269.388 424.935 270.245 423.668 270.245C422.375 270.245 421.358 269.295 421.358 267.87C421.358 266.471 422.388 265.521 423.668 265.521ZM431.698 270.179V271.143H436.238V270.179H434.562V261.906L431.791 262.724V263.779L433.414 263.344V270.179H431.698ZM442.412 269.203V271.143H443.573V269.203H444.694V268.134H443.573V261.906H441.725L436.922 267.936L437.08 269.203H442.412ZM442.412 268.134H438.136L442.412 262.777V268.134Z" fill="#101828"/>
<path d="M48.888 230.726V232.574C48.888 237.694 56.3567 237.68 56.3567 232.574V230.726C56.3567 225.62 48.888 225.606 48.888 230.726ZM50.036 232.574V230.726C50.036 227.045 55.2087 227.071 55.2087 230.713V232.56C55.2087 236.242 50.036 236.255 50.036 232.574Z" fill="#101828"/>
<path d="M79.1738 235.637L529.711 233.751" stroke="#E4E4E4" stroke-width="1.88509"/>
<path d="M81.059 232.809C87.3426 216.786 105.942 185.305 130.071 187.567C160.233 190.394 222.441 215.843 275.223 195.107C328.006 174.371 374.191 119.703 407.18 113.106C433.571 107.827 497.35 127.872 525.94 138.554" stroke="#6941C6" stroke-width="4.71273" stroke-linecap="round"/>
<path d="M79.1738 145.152C85.4575 129.443 113.105 107.45 173.428 145.152C248.832 192.279 352.512 211.13 389.271 194.164C418.679 180.592 492.637 121.903 525.94 94.2546" stroke="#101828" stroke-width="4.71273" stroke-linecap="round"/>
<g filter="url(#filter0_d_29_2538)">
<circle cx="186.624" cy="196.992" r="9.42545" fill="white"/>
</g>
<g filter="url(#filter1_d_29_2538)">
<circle cx="186.624" cy="196.992" r="4.71273" fill="#6941C6"/>
</g>
<g filter="url(#filter2_d_29_2538)">
<circle cx="181.911" cy="148.922" r="9.42545" fill="white"/>
</g>
<g filter="url(#filter3_d_29_2538)">
<circle cx="181.911" cy="148.922" r="4.71273" fill="#101828"/>
</g>
<g filter="url(#filter4_d_29_2538)">
<rect x="123.474" y="71.6335" width="134.784" height="54.6676" rx="7.54036" fill="white"/>
<path d="M190.015 139.025C188.927 140.911 186.206 140.911 185.118 139.025L178.587 127.715C177.499 125.83 178.86 123.473 181.036 123.473L194.097 123.473C196.273 123.473 197.634 125.83 196.545 127.715L190.015 139.025Z" fill="white"/>
<g filter="url(#filter5_d_29_2538)">
<circle cx="141.853" cy="108.864" r="4.24145" fill="#6941C6"/>
</g>
<g filter="url(#filter6_d_29_2538)">
<circle cx="141.853" cy="89.0705" r="4.24145" fill="#101828"/>
</g>
<path d="M157.514 85.9117V93.8404H158.498V90.5264H162.819V89.6102H158.498V86.8505H163.011V85.9117H157.514ZM169.258 92.9355L168.636 92.37C168.263 92.8224 167.493 93.0713 166.86 93.0713C165.786 93.0713 164.937 92.4266 164.836 91.3973H169.586C169.801 89.1691 168.5 88.1172 166.792 88.1172C165.107 88.1172 163.897 89.3275 163.897 91.0127C163.897 92.7885 165.107 93.9309 166.837 93.9309C167.708 93.9309 168.681 93.6029 169.247 92.9355H169.258ZM168.704 90.6169H164.836C164.994 89.5424 165.842 88.9542 166.815 88.9542C167.912 88.9542 168.658 89.5424 168.704 90.6282V90.6169ZM171.802 85.9117H170.875V93.8291H171.757L171.802 92.8111C172.243 93.5689 173.058 93.9309 173.883 93.9309C175.489 93.9309 176.722 92.879 176.722 91.0354C176.722 89.1578 175.489 88.1399 173.895 88.1399C173.103 88.1399 172.198 88.5018 171.802 89.2596V85.9117ZM173.827 89.0108C174.912 89.0108 175.795 89.7233 175.795 91.0354C175.795 92.3248 174.912 93.06 173.827 93.06C172.718 93.06 171.847 92.2456 171.847 91.0241C171.847 89.8251 172.73 89.0108 173.827 89.0108ZM180.71 93.0034V93.8291H184.601V93.0034H183.164V85.9117L180.789 86.6129V87.5178L182.18 87.1445V93.0034H180.71ZM185.482 93.0034V93.8291H189.373V93.0034H187.936V85.9117L185.561 86.6129V87.5178L186.952 87.1445V93.0034H185.482ZM190.446 89.9722C190.446 90.7752 191.656 90.7752 191.656 89.9722C191.656 89.1691 190.446 89.1691 190.446 89.9722ZM190.446 93.3088C190.446 94.1118 191.656 94.1118 191.656 93.3088C191.656 92.5057 190.446 92.5057 190.446 93.3088ZM198.261 95.0732H200.161V93.9761H200.15C201.552 93.7386 202.706 92.9582 202.706 91.4765C202.706 89.6555 201.066 89.0221 199.494 88.8524C198.713 88.7733 198.182 88.6941 198.182 88.1512C198.182 87.7327 198.713 87.563 199.256 87.563C199.946 87.563 200.568 87.6988 201.111 88.1059L202.22 86.6921C201.598 86.2058 200.93 85.9343 200.161 85.8212V84.8146H198.261V85.8438C196.983 86.0813 195.942 86.8165 195.942 88.1512C195.942 90.1192 197.435 90.5603 199.166 90.7187C200.037 90.7978 200.489 91.0467 200.489 91.4425C200.489 91.8837 199.98 92.1438 199.245 92.1438C198.578 92.1438 197.707 92.0081 196.926 91.2503L195.693 92.6641C196.519 93.5463 197.311 93.8969 198.261 94.01V95.0732ZM207.044 90.5829C208.085 90.5829 208.141 91.1824 208.141 91.386C208.141 91.895 207.599 92.1664 207.044 92.1664C206.377 92.1664 205.721 91.9289 205.71 91.2163H203.515C203.504 93.2522 205.336 93.9761 206.931 93.9761C208.469 93.9761 210.471 93.3766 210.471 91.5217C210.471 90.7978 210.155 90.1192 209.239 89.7799C209.895 89.4971 210.29 88.8524 210.29 88.253C210.29 86.432 208.469 85.776 206.943 85.776C205.37 85.776 203.674 86.4546 203.629 88.4H205.778C205.789 87.8345 206.354 87.6196 206.943 87.6196C207.632 87.6196 208.051 87.9589 208.051 88.3435C208.028 88.8977 207.384 88.9995 206.943 88.9995H205.608V90.5829H207.044ZM211.504 91.533C211.504 93.3653 213.065 93.9648 214.852 93.9648C216.594 93.9648 218.347 93.1844 218.347 91.1937V88.5244C218.347 86.5677 216.56 85.776 214.852 85.776C213.11 85.776 211.402 86.5564 211.402 88.5018C211.402 90.1758 212.646 91.0693 214.32 91.0693C214.954 91.0693 215.587 90.9788 216.153 90.5264V91.205C216.153 91.8837 215.451 92.223 214.829 92.223C214.196 92.223 213.687 92.0081 213.642 91.533H211.504ZM214.852 87.6083C215.689 87.6083 216.13 88.0494 216.13 88.5131C216.13 89.0447 215.711 89.4632 214.841 89.4632C214.105 89.4632 213.63 89.1126 213.63 88.5018C213.63 87.9363 214.173 87.6083 214.852 87.6083ZM221.797 88.4113C221.853 87.8119 222.283 87.5743 222.939 87.5743C223.482 87.5743 224.014 87.7779 224.014 88.3321C224.014 88.9768 223.346 89.1578 222.905 89.1578C221.276 89.1578 219.478 89.6329 219.478 91.9855V93.8291H226.163V91.9289H221.616C221.616 91.0127 222.362 90.9223 222.905 90.9223C224.805 90.9223 226.219 90.2662 226.219 88.2982C226.219 86.6129 224.715 85.7986 222.939 85.7986C221.175 85.7986 219.625 86.5677 219.614 88.4113H221.797ZM230.737 90.5829C231.777 90.5829 231.834 91.1824 231.834 91.386C231.834 91.895 231.291 92.1664 230.737 92.1664C230.07 92.1664 229.414 91.9289 229.402 91.2163H227.208C227.197 93.2522 229.029 93.9761 230.624 93.9761C232.162 93.9761 234.164 93.3766 234.164 91.5217C234.164 90.7978 233.847 90.1192 232.931 89.7799C233.587 89.4971 233.983 88.8524 233.983 88.253C233.983 86.432 232.162 85.776 230.635 85.776C229.063 85.776 227.366 86.4546 227.321 88.4H229.47C229.481 87.8345 230.047 87.6196 230.635 87.6196C231.325 87.6196 231.743 87.9589 231.743 88.3435C231.721 88.8977 231.076 88.9995 230.635 88.9995H229.3V90.5829H230.737ZM239.076 85.9117L234.857 90.6056L235.004 92.4605H239.042V93.8291H241.146V92.4605H241.994V90.696H241.146V85.9117H239.076ZM237.165 90.696L239.042 88.6262V90.696H237.165Z" fill="#101828"/>
<path d="M157.514 103.82V111.749H158.498V108.435H162.819V107.519H158.498V104.759H163.011V103.82H157.514ZM169.258 110.844L168.636 110.278C168.263 110.731 167.493 110.98 166.86 110.98C165.786 110.98 164.937 110.335 164.836 109.306H169.586C169.801 107.077 168.5 106.026 166.792 106.026C165.107 106.026 163.897 107.236 163.897 108.921C163.897 110.697 165.107 111.839 166.837 111.839C167.708 111.839 168.681 111.511 169.247 110.844H169.258ZM168.704 108.525H164.836C164.994 107.451 165.842 106.863 166.815 106.863C167.912 106.863 168.658 107.451 168.704 108.537V108.525ZM171.802 103.82H170.875V111.737H171.757L171.802 110.719C172.243 111.477 173.058 111.839 173.883 111.839C175.489 111.839 176.722 110.787 176.722 108.944C176.722 107.066 175.489 106.048 173.895 106.048C173.103 106.048 172.198 106.41 171.802 107.168V103.82ZM173.827 106.919C174.912 106.919 175.795 107.632 175.795 108.944C175.795 110.233 174.912 110.968 173.827 110.968C172.718 110.968 171.847 110.154 171.847 108.932C171.847 107.733 172.73 106.919 173.827 106.919ZM180.71 110.912V111.737H184.601V110.912H183.164V103.82L180.789 104.521V105.426L182.18 105.053V110.912H180.71ZM185.482 110.912V111.737H189.373V110.912H187.936V103.82L185.561 104.521V105.426L186.952 105.053V110.912H185.482ZM190.446 107.881C190.446 108.684 191.656 108.684 191.656 107.881C191.656 107.077 190.446 107.077 190.446 107.881ZM190.446 111.217C190.446 112.02 191.656 112.02 191.656 111.217C191.656 110.414 190.446 110.414 190.446 111.217ZM198.261 112.982H200.161V111.884H200.15C201.552 111.647 202.706 110.867 202.706 109.385C202.706 107.564 201.066 106.93 199.494 106.761C198.713 106.682 198.182 106.602 198.182 106.06C198.182 105.641 198.713 105.471 199.256 105.471C199.946 105.471 200.568 105.607 201.111 106.014L202.22 104.6C201.598 104.114 200.93 103.843 200.161 103.73V102.723H198.261V103.752C196.983 103.99 195.942 104.725 195.942 106.06C195.942 108.028 197.435 108.469 199.166 108.627C200.037 108.706 200.489 108.955 200.489 109.351C200.489 109.792 199.98 110.052 199.245 110.052C198.578 110.052 197.707 109.916 196.926 109.159L195.693 110.572C196.519 111.455 197.311 111.805 198.261 111.918V112.982ZM203.617 111.737H208.164V110.052H206.988V103.684L203.685 104.883V106.636L204.884 106.286V110.052H203.617V111.737ZM208.986 109.441C208.986 111.274 210.546 111.873 212.334 111.873C214.075 111.873 215.828 111.093 215.828 109.102V106.433C215.828 104.476 214.041 103.684 212.334 103.684C210.592 103.684 208.884 104.465 208.884 106.41C208.884 108.084 210.128 108.978 211.802 108.978C212.435 108.978 213.069 108.887 213.634 108.435V109.113C213.634 109.792 212.933 110.131 212.311 110.131C211.678 110.131 211.169 109.916 211.123 109.441H208.986ZM212.334 105.517C213.171 105.517 213.612 105.958 213.612 106.421C213.612 106.953 213.193 107.372 212.322 107.372C211.587 107.372 211.112 107.021 211.112 106.41C211.112 105.845 211.655 105.517 212.334 105.517ZM220.522 108.435C221.314 108.435 221.767 108.785 221.767 109.283C221.789 109.849 221.156 110.109 220.511 110.109C219.821 110.109 219.233 109.815 219.233 109.272C219.233 108.74 219.753 108.435 220.522 108.435ZM216.914 109.272C216.869 111.217 218.464 111.907 220.511 111.907C222.558 111.907 224.142 111.206 224.108 109.272C224.097 108.831 223.904 108.005 223.067 107.553C223.622 107.213 223.916 106.648 223.904 106.037C223.904 104.453 222.287 103.65 220.421 103.65C218.577 103.65 217.152 104.453 217.152 106.06C217.163 106.67 217.423 107.247 217.966 107.632C217.208 108.028 216.926 108.853 216.914 109.272ZM220.466 106.964C219.018 106.964 219.018 105.347 220.477 105.347C221.936 105.347 221.925 106.964 220.466 106.964ZM231.965 106.116C231.965 104.284 230.416 103.684 228.629 103.684C226.887 103.684 225.202 104.499 225.202 106.376V109.125C225.202 111.081 226.989 111.873 228.697 111.873C230.438 111.873 232.146 111.093 232.146 109.147C232.146 107.473 230.902 106.58 229.228 106.58C228.595 106.58 227.848 106.783 227.396 107.123V106.376C227.396 105.765 228.018 105.426 228.64 105.426C229.273 105.426 229.782 105.641 229.828 106.116H231.965ZM228.697 110.041C227.86 110.041 227.419 109.6 227.419 109.136C227.419 108.604 227.837 108.186 228.708 108.186C229.443 108.186 229.918 108.537 229.918 109.147C229.918 109.713 229.375 110.041 228.697 110.041ZM239.261 103.831H233.244V108.344H236.377C236.784 108.344 237.508 108.435 237.497 109.204C237.497 109.905 236.728 110.041 236.4 110.041C235.902 110.041 235.291 109.781 235.291 109.113H233.108C233.12 111.115 234.533 111.839 236.422 111.839C237.915 111.839 239.68 111.149 239.68 109.204C239.691 107.066 238.119 106.591 236.377 106.591H235.314V105.652H239.261V103.831Z" fill="#101828"/>
</g>
</g>
<defs>
<filter id="filter0_d_29_2538" x="147.98" y="162.118" width="77.2888" height="77.2887" filterUnits="userSpaceOnUse" color-interpolation-filters="sRGB">
<feFlood flood-opacity="0" result="BackgroundImageFix"/>
<feColorMatrix in="SourceAlpha" type="matrix" values="0 0 0 0 0 0 0 0 0 0 0 0 0 0 0 0 0 0 127 0" result="hardAlpha"/>
<feOffset dy="3.77018"/>
<feGaussianBlur stdDeviation="14.6095"/>
<feComposite in2="hardAlpha" operator="out"/>
<feColorMatrix type="matrix" values="0 0 0 0 0 0 0 0 0 0 0 0 0 0 0 0 0 0 0.25 0"/>
<feBlend mode="normal" in2="BackgroundImageFix" result="effect1_dropShadow_29_2538"/>
<feBlend mode="normal" in="SourceGraphic" in2="effect1_dropShadow_29_2538" result="shape"/>
</filter>
<filter id="filter1_d_29_2538" x="152.693" y="166.831" width="67.8632" height="67.8633" filterUnits="userSpaceOnUse" color-interpolation-filters="sRGB">
<feFlood flood-opacity="0" result="BackgroundImageFix"/>
<feColorMatrix in="SourceAlpha" type="matrix" values="0 0 0 0 0 0 0 0 0 0 0 0 0 0 0 0 0 0 127 0" result="hardAlpha"/>
<feOffset dy="3.77018"/>
<feGaussianBlur stdDeviation="14.6095"/>
<feComposite in2="hardAlpha" operator="out"/>
<feColorMatrix type="matrix" values="0 0 0 0 0 0 0 0 0 0 0 0 0 0 0 0 0 0 0.25 0"/>
<feBlend mode="normal" in2="BackgroundImageFix" result="effect1_dropShadow_29_2538"/>
<feBlend mode="normal" in="SourceGraphic" in2="effect1_dropShadow_29_2538" result="shape"/>
</filter>
<filter id="filter2_d_29_2538" x="143.267" y="114.048" width="77.2888" height="77.2887" filterUnits="userSpaceOnUse" color-interpolation-filters="sRGB">
<feFlood flood-opacity="0" result="BackgroundImageFix"/>
<feColorMatrix in="SourceAlpha" type="matrix" values="0 0 0 0 0 0 0 0 0 0 0 0 0 0 0 0 0 0 127 0" result="hardAlpha"/>
<feOffset dy="3.77018"/>
<feGaussianBlur stdDeviation="14.6095"/>
<feComposite in2="hardAlpha" operator="out"/>
<feColorMatrix type="matrix" values="0 0 0 0 0 0 0 0 0 0 0 0 0 0 0 0 0 0 0.25 0"/>
<feBlend mode="normal" in2="BackgroundImageFix" result="effect1_dropShadow_29_2538"/>
<feBlend mode="normal" in="SourceGraphic" in2="effect1_dropShadow_29_2538" result="shape"/>
</filter>
<filter id="filter3_d_29_2538" x="147.98" y="118.761" width="67.8632" height="67.8633" filterUnits="userSpaceOnUse" color-interpolation-filters="sRGB">
<feFlood flood-opacity="0" result="BackgroundImageFix"/>
<feColorMatrix in="SourceAlpha" type="matrix" values="0 0 0 0 0 0 0 0 0 0 0 0 0 0 0 0 0 0 127 0" result="hardAlpha"/>
<feOffset dy="3.77018"/>
<feGaussianBlur stdDeviation="14.6095"/>
<feComposite in2="hardAlpha" operator="out"/>
<feColorMatrix type="matrix" values="0 0 0 0 0 0 0 0 0 0 0 0 0 0 0 0 0 0 0.25 0"/>
<feBlend mode="normal" in2="BackgroundImageFix" result="effect1_dropShadow_29_2538"/>
<feBlend mode="normal" in="SourceGraphic" in2="effect1_dropShadow_29_2538" result="shape"/>
</filter>
<filter id="filter4_d_29_2538" x="109.335" y="61.2655" width="163.06" height="97.0821" filterUnits="userSpaceOnUse" color-interpolation-filters="sRGB">
<feFlood flood-opacity="0" result="BackgroundImageFix"/>
<feColorMatrix in="SourceAlpha" type="matrix" values="0 0 0 0 0 0 0 0 0 0 0 0 0 0 0 0 0 0 127 0" result="hardAlpha"/>
<feOffset dy="3.77018"/>
<feGaussianBlur stdDeviation="7.06909"/>
<feComposite in2="hardAlpha" operator="out"/>
<feColorMatrix type="matrix" values="0 0 0 0 0 0 0 0 0 0 0 0 0 0 0 0 0 0 0.1 0"/>
<feBlend mode="normal" in2="BackgroundImageFix" result="effect1_dropShadow_29_2538"/>
<feBlend mode="normal" in="SourceGraphic" in2="effect1_dropShadow_29_2538" result="shape"/>
</filter>
<filter id="filter5_d_29_2538" x="108.393" y="79.1738" width="66.9207" height="66.9207" filterUnits="userSpaceOnUse" color-interpolation-filters="sRGB">
<feFlood flood-opacity="0" result="BackgroundImageFix"/>
<feColorMatrix in="SourceAlpha" type="matrix" values="0 0 0 0 0 0 0 0 0 0 0 0 0 0 0 0 0 0 127 0" result="hardAlpha"/>
<feOffset dy="3.77018"/>
<feGaussianBlur stdDeviation="14.6095"/>
<feComposite in2="hardAlpha" operator="out"/>
<feColorMatrix type="matrix" values="0 0 0 0 0 0 0 0 0 0 0 0 0 0 0 0 0 0 0.25 0"/>
<feBlend mode="normal" in2="BackgroundImageFix" result="effect1_dropShadow_29_2538"/>
<feBlend mode="normal" in="SourceGraphic" in2="effect1_dropShadow_29_2538" result="shape"/>
</filter>
<filter id="filter6_d_29_2538" x="108.393" y="59.3803" width="66.9207" height="66.9207" filterUnits="userSpaceOnUse" color-interpolation-filters="sRGB">
<feFlood flood-opacity="0" result="BackgroundImageFix"/>
<feColorMatrix in="SourceAlpha" type="matrix" values="0 0 0 0 0 0 0 0 0 0 0 0 0 0 0 0 0 0 127 0" result="hardAlpha"/>
<feOffset dy="3.77018"/>
<feGaussianBlur stdDeviation="14.6095"/>
<feComposite in2="hardAlpha" operator="out"/>
<feColorMatrix type="matrix" values="0 0 0 0 0 0 0 0 0 0 0 0 0 0 0 0 0 0 0.25 0"/>
<feBlend mode="normal" in2="BackgroundImageFix" result="effect1_dropShadow_29_2538"/>
<feBlend mode="normal" in="SourceGraphic" in2="effect1_dropShadow_29_2538" result="shape"/>
</filter>
<clipPath id="clip0_29_2538">
<rect width="480" height="305" rx="18.8509" fill="white"/>
</clipPath>
</defs>
</svg>
